<svg width="16" height="17" viewBox="0 0 16 17" fill="none" xmlns="http://www.w3.org/2000/svg">
<path fill-rule="evenodd" clip-rule="evenodd" d="M1.5 8.5C1.5 4.91 4.41 2 8 2C11.59 2 14.5 4.91 14.5 8.5C14.5 12.09 11.59 15 8 15C4.41 15 1.5 12.09 1.5 8.5ZM5.5 6.87533C5.5 6.392 5.892 6 6.37533 6H9.62467C10.108 6 10.5 6.392 10.5 6.87533V10.1247C10.5 10.608 10.108 11 9.62533 11H6.374C6.25909 11.0002 6.14527 10.9777 6.03907 10.9338C5.93287 10.8899 5.83638 10.8255 5.75513 10.7442C5.67387 10.663 5.60945 10.5665 5.56556 10.4603C5.52166 10.3541 5.49916 10.2402 5.49933 10.1253L5.5 6.87533Z" fill="black"/>
</svg>
