<svg width="16" height="16" viewBox="0 0 16 16" fill="none" xmlns="http://www.w3.org/2000/svg">
<path d="M16 8C16 9.78919 15.4002 11.5267 14.2965 12.935C13.1928 14.3432 11.6489 15.3407 9.91156 15.7683C8.1742 16.1958 6.34367 16.0286 4.71252 15.2933C3.08138 14.5581 1.74379 13.2973 0.913517 11.7124C0.0832473 10.1275 -0.191769 8.31003 0.13242 6.55045C0.456609 4.79088 1.36129 3.19077 2.70188 2.00585C4.04246 0.820926 5.74157 0.119601 7.52764 0.0139577C9.31371 -0.0916861 11.0836 0.40445 12.5546 1.42307L11.2274 3.33954C10.1851 2.61774 8.9309 2.26618 7.66528 2.34104C6.39966 2.4159 5.19566 2.91286 4.24571 3.7525C3.29577 4.59214 2.6547 5.726 2.42498 6.97284C2.19526 8.21969 2.39014 9.50756 2.97847 10.6306C3.56681 11.7537 4.51463 12.6471 5.67047 13.1681C6.82631 13.6891 8.12344 13.8076 9.35455 13.5046C10.5857 13.2017 11.6797 12.4948 12.4618 11.4969C13.2438 10.4991 13.6689 9.26783 13.6689 8H16Z" fill="#26AE03"/>
<path d="M4.44531 7.1111L8.00087 10.6667L15.112 3.55554" stroke="black" stroke-width="2"/>
</svg>
