<svg width="16" height="17" viewBox="0 0 16 17" fill="none" xmlns="http://www.w3.org/2000/svg">
<path d="M16 8.5C16 8.19614 15.8864 7.92633 15.6593 7.69057C15.4321 7.44957 15.1293 7.26097 14.7507 7.12475C14.3721 6.9833 13.958 6.91257 13.5084 6.91257H10.6477C10.449 6.91257 10.2975 6.889 10.1934 6.84185C10.0941 6.78946 9.98521 6.68992 9.8669 6.54322L5.09672 0.782908C4.94055 0.594303 4.75836 0.5 4.55013 0.5H3.72671C3.63679 0.5 3.56818 0.539293 3.52085 0.617878C3.47826 0.696464 3.48063 0.790766 3.52795 0.900786L5.98403 6.91257L2.37799 7.36837L1.09317 4.75933C0.998521 4.57073 0.837622 4.47642 0.61047 4.47642H0.305235C0.215321 4.47642 0.14197 4.50786 0.0851819 4.57073C0.028394 4.62836 0 4.70956 0 4.81434V12.1857C0 12.2852 0.028394 12.3664 0.0851819 12.4293C0.14197 12.4869 0.215321 12.5157 0.305235 12.5157H0.61047C0.837622 12.5157 0.998521 12.424 1.09317 12.2407L2.37799 9.63163L5.98403 10.0874L3.52795 16.0992C3.48063 16.2092 3.47826 16.3035 3.52085 16.3821C3.56818 16.4607 3.63679 16.5 3.72671 16.5H4.55013C4.75836 16.5 4.94055 16.4057 5.09672 16.2171L9.8669 10.4489C9.98521 10.3022 10.0941 10.2053 10.1934 10.1582C10.2975 10.111 10.449 10.0874 10.6477 10.0874H13.5084C13.958 10.0874 14.3721 10.0193 14.7507 9.8831C15.1293 9.74165 15.4321 9.55305 15.6593 9.31729C15.8864 9.07629 16 8.80386 16 8.5Z" fill="black"/>
</svg>
