<svg width="16" height="17" viewBox="0 0 16 17" fill="none" xmlns="http://www.w3.org/2000/svg">
<g clip-path="url(#clip0_1364_507)">
<path d="M5.33301 1.83337C5.7012 1.83337 5.99967 2.13185 5.99967 2.50004V3.16671L9.99967 3.16671V2.50004C9.99967 2.13185 10.2982 1.83337 10.6663 1.83337C11.0345 1.83337 11.333 2.13185 11.333 2.50004V3.16671H11.9997C13.4724 3.16671 14.6663 4.36062 14.6663 5.83337V7.83337C14.6663 8.20156 14.3679 8.50004 13.9997 8.50004H2.66634L2.66634 13.8323L2.66737 13.8331C2.66716 13.8331 2.66728 13.8331 2.66737 13.8331L2.66851 13.8334H5.66634C6.03453 13.8334 6.33301 14.1318 6.33301 14.5C6.33301 14.8682 6.03453 15.1667 5.66634 15.1667L2.66851 15.1667C1.93495 15.1667 1.33301 14.5726 1.33301 13.8334V5.83337C1.33301 4.36061 2.52692 3.16671 3.99968 3.16671H4.66634V2.50004C4.66634 2.13185 4.96482 1.83337 5.33301 1.83337Z" fill="black"/>
<path d="M12.4711 10.0286L14.4711 12.0286C14.7314 12.289 14.7314 12.7111 14.4711 12.9714L12.4711 14.9714C12.2107 15.2318 11.7886 15.2318 11.5283 14.9714C11.2679 14.7111 11.2679 14.289 11.5283 14.0286L12.3902 13.1667H7.99967C7.63148 13.1667 7.33301 12.8682 7.33301 12.5C7.33301 12.1319 7.63148 11.8334 7.99967 11.8334H12.3902L11.5283 10.9714C11.2679 10.7111 11.2679 10.289 11.5283 10.0286C11.7886 9.76829 12.2107 9.76829 12.4711 10.0286Z" fill="black"/>
</g>
<defs>
<clipPath id="clip0_1364_507">
<rect width="13.3333" height="13.3333" fill="white" transform="translate(1.33301 1.83337)"/>
</clipPath>
</defs>
</svg>
