<svg width="16" height="17" viewBox="0 0 16 17" fill="none" xmlns="http://www.w3.org/2000/svg">
<g clip-path="url(#clip0_1364_514)">
<path d="M3.99967 1.83337H11.9997C12.7361 1.83337 13.333 2.43033 13.333 3.16671V5.50004H12.9997C11.5269 5.50004 10.333 6.69395 10.333 8.16671V8.83337L5.66634 8.83337V8.16671C5.66634 6.69395 4.47243 5.50004 2.99967 5.50004H2.66634V3.16671C2.66634 2.43033 3.26329 1.83337 3.99967 1.83337Z" fill="black"/>
<path d="M2.99967 6.50004C2.0792 6.50004 1.33301 7.24623 1.33301 8.16671V12.5C1.33301 12.8682 1.63148 13.1667 1.99967 13.1667H2.66634L2.66634 14.5C2.66634 14.8682 2.96482 15.1667 3.33301 15.1667C3.7012 15.1667 3.99967 14.8682 3.99967 14.5V13.1667H11.9997V14.5C11.9997 14.8682 12.2982 15.1667 12.6663 15.1667C13.0345 15.1667 13.333 14.8682 13.333 14.5V13.1667H13.9997C14.3679 13.1667 14.6663 12.8682 14.6663 12.5V8.16671C14.6663 7.24623 13.9201 6.50004 12.9997 6.50004C12.0792 6.50004 11.333 7.24623 11.333 8.16671V9.16671C11.333 9.5349 11.0345 9.83337 10.6663 9.83337H5.33301C4.96482 9.83337 4.66634 9.5349 4.66634 9.16671V8.16671C4.66634 7.24623 3.92015 6.50004 2.99967 6.50004Z" fill="black"/>
</g>
<defs>
<clipPath id="clip0_1364_514">
<rect width="13.3333" height="13.3333" fill="white" transform="translate(1.33301 1.83337)"/>
</clipPath>
</defs>
</svg>
