<svg width="88" height="25" viewBox="0 0 88 25" fill="none" xmlns="http://www.w3.org/2000/svg">
<path d="M76.5907 24.1322C76.1453 23.7782 76.1553 23.5487 76.6079 23.3325C76.8571 23.214 77.1292 23.1444 77.4199 23.0422C77.364 22.9326 77.3039 22.8171 77.2366 22.6868C76.3372 22.7845 75.4321 23.3769 74.5156 22.5876C74.9466 22.5506 75.329 22.5165 75.7128 22.4839C75.7128 22.4499 75.7114 22.4173 75.7114 22.3832C75.213 22.3832 74.7132 22.404 74.2162 22.3788C73.5116 22.3432 72.797 22.3358 72.1053 22.2055C71.2475 22.0441 70.9109 21.3955 71.2675 20.5676C71.5052 20.0153 71.8547 19.494 72.2356 19.029C72.966 18.136 73.8611 17.4444 74.8478 16.855C75.6369 16.3841 76.383 15.8243 77.1048 15.2453C77.8094 14.6826 77.7607 13.8932 77.0017 13.4119C76.6322 13.178 76.1883 13.0654 75.7773 12.9025C75.0569 12.6182 74.3007 12.4035 73.6219 12.0362C72.7741 11.5786 72.2886 10.7819 72.2055 9.78522C72.1411 9.00183 71.7344 8.50573 71.047 8.33839C70.2292 8.14143 69.3857 7.99778 68.5479 7.95484C66.9411 7.87191 65.3299 7.85562 63.7202 7.84821C61.1553 7.83636 58.6863 7.23956 56.2288 6.57316C55.1303 6.2755 54.0462 5.92305 52.9578 5.59133C52.8132 5.5469 52.6771 5.47433 52.5368 5.37808C53.734 5.3144 54.9528 5.46989 56.1787 4.9501C54.2009 4.07341 53.0394 2.53771 52.332 0.5C53.2714 0.836164 54.1522 1.15752 55.0344 1.46851C58.1149 2.55252 61.257 3.40996 64.4592 3.99344C65.7209 4.22298 67.0256 4.20372 68.3102 4.2985C69.5146 4.38587 70.7118 4.531 71.8418 5.00193C73.0476 5.50543 73.8639 6.35251 73.9456 7.77121C74.0315 9.2521 74.9151 10.0947 76.1081 10.6693C77.5116 11.3446 79.0196 11.546 80.5491 11.6275C81.8896 11.7 83.2357 11.743 84.5662 11.9074C85.3567 12.0051 86.0742 12.3842 86.4652 13.3216C86.0957 13.4534 85.7477 13.5615 85.414 13.7066C85.2866 13.7629 85.1949 13.9066 85.0875 14.0102C85.2264 14.0487 85.3725 14.1361 85.5028 14.1154C85.7463 14.0784 85.9854 13.9939 86.2174 13.9036C86.796 13.6785 87.8415 14.2487 87.9804 14.881C88.042 15.1594 87.9646 15.3786 87.6581 15.4141C87.1225 15.4763 86.5826 15.5074 86.047 15.5711C84.1208 15.7962 82.1831 15.9561 80.2741 16.2893C79.2802 16.4626 78.3221 16.9069 77.3798 17.3052C77.0003 17.4666 76.6766 17.8072 76.373 18.1153C76.058 18.4351 75.7873 18.8054 75.5137 19.1667C75.0727 19.7472 75.0311 20.2907 75.4722 20.8594C76.2842 21.9079 77.3841 22.4913 78.6386 22.7712C78.7904 22.8053 78.9637 22.7135 79.127 22.709C79.717 22.6883 80.3114 22.6453 80.8985 22.6824C81.0947 22.6957 81.278 22.9267 81.4671 23.0585C81.4456 23.0866 81.4241 23.1148 81.4026 23.1414C81.0718 23.0955 80.741 23.0496 80.4059 23.0022C80.499 23.2362 80.5849 23.4554 80.6522 23.6257C80.2985 23.5591 79.9519 23.4539 79.601 23.4347C78.9637 23.3991 78.325 23.411 77.6863 23.405C77.1908 23.4065 76.7869 23.5679 76.5907 24.1322Z" fill="white"/>
<path d="M13.9869 10.5212C13.8637 10.5686 13.7449 10.6441 13.6174 10.6604C12.9944 10.7404 12.8827 10.8663 13.0617 11.5001C13.8179 14.1672 14.5941 16.8283 15.3646 19.491C15.4434 19.762 15.5322 20.03 15.6553 20.421C15.7541 20.19 15.8157 20.0597 15.8658 19.9249C16.9657 16.9838 18.0641 14.0428 19.1669 11.1032C19.2843 10.7922 19.3616 10.3213 19.7469 10.379C19.9646 10.4116 20.188 10.8129 20.304 11.0943C21.5141 14.0354 22.7042 16.9853 23.9 19.9323C23.9373 20.0241 23.9774 20.1145 24.049 20.2833C24.1535 19.9841 24.2452 19.7546 24.3154 19.5191C25.0386 17.0949 25.7589 14.6707 26.4764 12.245C26.5337 12.0539 26.5724 11.8555 26.6096 11.66C26.7528 10.9181 26.6125 10.73 25.8893 10.6619C25.7461 10.6486 25.6086 10.5745 25.4682 10.5301C25.4768 10.4664 25.484 10.4042 25.4926 10.3405C25.7446 10.3257 25.9981 10.2991 26.2502 10.2976C27.2211 10.2931 28.1921 10.2961 29.1631 10.2961C29.219 10.2961 29.2805 10.2798 29.3292 10.2991C29.4581 10.3494 29.5813 10.4131 29.7059 10.4723C29.587 10.5375 29.4667 10.6604 29.3478 10.6574C28.6389 10.6456 28.354 11.1299 28.1506 11.7133C27.4889 13.6148 26.8187 15.5118 26.1771 17.4207C25.4868 19.4777 24.8252 21.5465 24.1507 23.6094C24.1192 23.7042 24.1077 23.8167 24.0504 23.8907C23.9129 24.0684 23.7626 24.3498 23.6022 24.3602C23.4475 24.3706 23.2055 24.1277 23.121 23.9396C22.6713 22.9237 22.2574 21.8901 21.8335 20.8623C21.0014 18.8453 20.1694 16.8283 19.3359 14.8114C19.2986 14.7195 19.2557 14.6307 19.1826 14.4648C19.0724 14.7314 18.9864 14.9343 18.9048 15.1401C17.7706 18.0042 16.6406 20.8712 15.4992 23.7323C15.3875 24.0107 15.313 24.3928 14.9292 24.3854C14.5297 24.378 14.5082 23.9766 14.4137 23.6953C13.0818 19.7294 11.7542 15.7606 10.4381 11.7903C10.219 11.1299 9.93828 10.6012 9.14345 10.6545C9.07328 10.6589 8.99451 10.5331 8.92004 10.4679C8.99165 10.4175 9.06182 10.3272 9.13629 10.3242C9.48143 10.3094 9.82944 10.3213 10.176 10.3198C11.2444 10.3124 12.3127 10.3006 13.3825 10.2991C13.5773 10.2991 13.7721 10.3405 13.9668 10.3627C13.974 10.4146 13.9797 10.4679 13.9869 10.5212Z" fill="white"/>
<path d="M53.0294 9.9198C54.0477 10.1123 55.096 10.2027 56.0784 10.5151C58.609 11.3207 60.127 13.1171 60.4579 15.8538C60.74 18.1832 60.2101 20.3083 58.6176 22.0572C57.4089 23.3856 55.8808 24.0875 54.1465 24.3097C52.2776 24.5496 50.443 24.4089 48.7775 23.4211C46.2268 21.9091 45.1169 19.5293 45.3676 16.5661C45.611 13.6724 47.1391 11.648 49.7857 10.5936C50.2611 10.4041 50.7667 10.2752 51.2693 10.1878C51.8422 10.0871 52.4265 10.0634 53.0065 10.0057C53.0137 9.97756 53.0208 9.94942 53.0294 9.9198ZM57.8457 17.7597C57.7511 16.9807 57.7239 16.2877 57.5779 15.6213C57.1582 13.702 56.1959 12.1856 54.3785 11.3992C51.6861 10.2352 49.0266 11.5177 48.3063 14.3566C47.8251 16.2492 47.9124 18.1403 48.6572 19.9588C49.3245 21.5907 50.4473 22.737 52.1329 23.2153C54.6706 23.935 56.7687 22.7562 57.4619 20.1735C57.6781 19.3679 57.7297 18.5149 57.8457 17.7597Z" fill="white"/>
<path d="M36.8364 9.96155C38.2943 10.0415 39.6978 10.2785 40.9953 10.9686C43.6017 12.3532 44.5083 14.9581 44.2906 17.6178C43.9655 21.5881 40.9938 24.3455 36.8149 24.4018C34.8285 24.4284 32.9553 24.0227 31.4401 22.6114C29.4094 20.7203 28.7034 18.3183 29.3091 15.5904C29.9264 12.8123 31.6779 11.0707 34.3359 10.3555C35.1479 10.1363 36.0014 10.0874 36.8364 9.96155ZM41.6483 17.7674C41.5595 17.0047 41.5194 16.3886 41.412 15.7844C40.9423 13.1618 39.2452 11.3758 36.845 11.0545C34.9517 10.8012 32.8952 11.5535 32.1648 14.1095C31.6478 15.9192 31.6764 17.7422 32.2865 19.5222C32.9653 21.5051 34.2399 22.8616 36.295 23.3044C38.6466 23.8094 40.5857 22.6351 41.233 20.2493C41.4621 19.4038 41.528 18.5078 41.6483 17.7674Z" fill="white"/>
<path d="M0.0366098 21.8857C0.0666844 21.3422 0.0810052 20.7958 0.136858 20.2552C0.152611 20.0997 0.290097 19.9576 0.371728 19.808C0.441902 19.9546 0.53499 20.0953 0.579386 20.2493C0.735487 20.7958 0.792772 21.3911 1.03766 21.8887C1.88405 23.6035 4.53204 23.9841 5.85533 22.6202C6.57998 21.8739 6.75183 20.7365 6.29928 19.6644C5.97419 18.8928 5.4128 18.3197 4.80415 17.7895C3.90334 17.0032 2.96817 16.2553 2.11176 15.4201C1.19233 14.5242 0.58225 13.4283 0.471977 12.0822C0.327332 10.3051 1.14507 8.83603 2.71468 8.09114C3.89045 7.53284 5.13067 7.48397 6.38521 7.61281C6.92083 7.6676 7.44785 7.81125 7.9806 7.90455C8.24697 7.95045 8.35152 8.08225 8.3372 8.37251C8.29567 9.23143 8.27991 10.0918 8.2527 10.9522C8.24984 11.0381 8.257 11.1344 8.2212 11.2055C8.1811 11.2854 8.09803 11.3432 8.03359 11.4113C7.96628 11.3343 7.86459 11.2691 7.83882 11.1803C7.75002 10.8663 7.72998 10.5257 7.61111 10.2266C6.93944 8.56059 4.63659 7.97415 3.27464 9.10852C2.49127 9.7616 2.25067 10.9448 2.81063 11.866C3.12857 12.3887 3.56822 12.8537 4.02078 13.2654C5.04045 14.1924 6.14891 15.0203 7.13421 15.9814C8.36298 17.1794 8.9215 18.6929 8.69093 20.4581C8.45606 22.2544 7.45644 23.4584 5.8453 24.0537C4.08809 24.7038 2.30509 24.615 0.545014 23.9738C0.162637 23.8346 -0.0135145 23.5917 0.000806751 23.1726C0.015128 22.7431 0.00367161 22.3122 0.00367161 21.8827C0.0151286 21.8857 0.026585 21.8857 0.0366098 21.8857Z" fill="white"/>
<path d="M65.403 16.9171C65.403 18.826 65.383 20.7348 65.4116 22.6437C65.4245 23.4804 65.6765 23.6981 66.4757 23.7588C66.6275 23.7707 66.7864 23.744 66.9311 23.781C67.07 23.8166 67.196 23.9129 67.3264 23.9825C67.1874 24.0476 67.0514 24.1616 66.911 24.1676C66.4814 24.1824 66.0518 24.1439 65.6221 24.1453C64.3876 24.1513 63.1531 24.175 61.9187 24.1676C61.7282 24.1661 61.5377 24.0402 61.3472 23.9721C61.5234 23.9054 61.6952 23.7973 61.8743 23.7796C62.4858 23.7233 62.7063 23.5782 62.7722 22.931C62.8596 22.0632 62.9025 21.1865 62.904 20.3128C62.9126 17.5554 62.8954 14.7994 62.8853 12.042C62.881 11.0231 62.5932 10.7299 61.595 10.6633C61.4188 10.6514 61.2484 10.5359 61.0751 10.4693C61.257 10.4115 61.4375 10.3019 61.6193 10.3019C63.6601 10.2975 65.7009 10.299 67.7402 10.3286C68.1928 10.3345 68.6554 10.4145 69.095 10.5344C70.9654 11.0453 71.8519 12.6728 71.3649 14.6513C70.8981 16.5483 69.3041 17.8264 67.2218 17.97C67.0414 17.9819 66.8552 18.0129 66.6819 17.9774C66.4886 17.9374 66.3067 17.8323 66.1191 17.7553C66.2966 17.6797 66.4699 17.5554 66.6533 17.5391C67.6056 17.4547 68.3016 16.9645 68.7585 16.1233C68.9318 15.8049 69.0564 15.4406 69.1251 15.0808C69.423 13.5495 68.6912 11.9931 67.4237 11.3963C66.8623 11.1312 66.2737 11.1075 65.6722 11.1801C65.3543 11.2186 65.32 11.4318 65.3214 11.7028C65.3271 13.4399 65.3242 15.1785 65.3242 16.9156C65.3529 16.9171 65.3772 16.9171 65.403 16.9171Z" fill="white"/>
</svg>
